<svg width="40" height="34" viewBox="0 0 40 34" fill="none" xmlns="http://www.w3.org/2000/svg">
<g clip-path="url(#clip0_535_889)">
<path d="M24.5333 0.199957C17.78 0.196623 10.7333 1.71829 3.62167 3.69162C2.71917 3.87246 1.8375 4.46412 1.37167 5.19496C0.942505 5.88246 0.788338 6.57496 0.653338 7.29996C-0.0383283 11.1708 0.0466717 14.9725 0.190838 19.185C0.221672 20.1483 0.365838 21.2916 0.815838 21.9858C1.28584 22.6883 2.09167 23.1333 3.05417 23.28C4.29084 23.4675 5.5225 23.6083 6.75417 23.7383L6.48167 31.3433C6.46403 31.6089 6.51125 31.8748 6.61926 32.1182C6.72727 32.3615 6.89283 32.5749 7.10167 32.74C7.43084 32.99 7.7975 33.1016 8.17334 33.1291C8.925 33.1858 9.80667 32.8641 10.2458 32.0308C12.1633 28.3375 13.3683 26.7075 15.7675 24.2541C22.0258 24.4075 27.4883 24.06 33.6742 23.6025C35.8608 23.5458 37.3608 21.7575 37.7575 20.3308C38.945 16.6308 39.1292 12.0641 39.255 7.44746C39.3083 5.61662 38.6733 3.82079 37.5492 2.87162C36.4817 2.00496 35.1875 1.68996 34.0025 1.36912C30.7092 0.62329 27.415 0.222457 24.5333 0.199957ZM33.53 3.09412C34.7167 3.41579 35.7633 3.72746 36.4225 4.26246C37.525 5.43329 37.4883 6.21246 37.4725 7.47579C37.3483 11.9533 37.1333 16.2991 36.1225 19.5925C35.6867 20.8208 34.9283 21.695 33.4942 21.8275C27.1933 22.2941 21.7258 22.6525 15.3917 22.4733C15.2684 22.4694 15.1456 22.4909 15.031 22.5363C14.9163 22.5818 14.8122 22.6502 14.725 22.7375C12.0633 25.4241 10.7017 27.2925 8.67417 31.1958C8.62667 31.2858 8.52417 31.3391 8.39917 31.3491C8.31417 31.3441 8.28 31.2791 8.27417 31.22L8.54917 22.9741C8.56584 22.5291 8.19834 22.1041 7.75584 22.0558C6.28084 21.9125 4.81 21.7366 3.3325 21.5141C2.6975 21.4166 2.46334 21.2433 2.28917 20.985C1.98667 20.2633 1.99417 19.8175 1.97 19.1233C1.82834 14.9491 1.75917 11.3008 2.4 7.67162C2.45917 7.13412 2.66 6.58496 2.87334 6.12662C3.22667 5.57412 3.76834 5.49329 4.31084 5.34246C11.2658 3.42246 18.0708 1.98496 24.4775 1.98079C27.6175 2.09496 30.9158 2.40996 33.53 3.09412V3.09412ZM9.50584 10.1666C8.5475 11.3158 8.64334 12.8733 9.38334 13.9183C9.77 14.4641 10.3733 14.9041 11.1083 15.0033C12.0617 15.0816 12.6667 14.6958 13.3192 14.2525C14.5025 13.2233 14.6225 11.43 13.7225 10.1341C13.2642 9.47412 12.5325 9.07746 11.7842 9.05079C10.7592 9.06079 10.0633 9.51746 9.50584 10.1666V10.1666ZM19.8708 9.22996C18.9167 9.26079 18.145 9.92162 17.6733 10.635C17.1342 11.4508 16.8192 12.4716 17.2558 13.4733C18.095 15.3983 20.9942 15.375 22.1517 13.4175C22.685 12.5158 22.5483 11.4908 22.1517 10.7466C21.7558 10.0025 21.1583 9.39662 20.2883 9.25829C20.1504 9.23548 20.0106 9.226 19.8708 9.22996V9.22996ZM28.2858 9.41079C27.9861 9.40137 27.6865 9.43419 27.3958 9.50829C26.2483 9.81412 25.2725 10.9983 25.4208 12.5133C25.4958 13.275 25.8458 14.0183 26.4775 14.53C27.11 15.0425 28.0275 15.2716 28.995 15.0733C30.1075 14.845 30.7958 13.9491 31.0258 13.0833C31.2558 12.2183 31.1983 11.3366 30.6642 10.6216C30.0733 9.82996 29.1792 9.43162 28.2858 9.41079V9.41079ZM11.7058 10.83C11.92 10.8316 12.0892 10.9 12.2625 11.15C12.6517 11.7116 12.5433 12.5616 12.1508 12.9025C11.7592 13.2433 11.5158 13.2741 11.3442 13.2508C11.1733 13.2275 11 13.1091 10.8442 12.8891C10.5467 12.47 10.4592 11.7908 10.85 11.3058C11.0583 11.03 11.44 10.8575 11.7058 10.83V10.83ZM19.9958 11.025C20.0292 11.03 20.4017 11.2466 20.58 11.5808C20.7583 11.9158 20.7917 12.2266 20.6217 12.5133C20.1175 13.3658 19.045 13.1358 18.8833 12.7633C18.8217 12.6225 18.8675 12.0533 19.1617 11.6091C19.455 11.165 19.8242 10.9975 19.9958 11.025V11.025ZM29.2317 11.6783C29.2858 11.7508 29.4183 12.2375 29.315 12.625C29.2125 13.0116 29.045 13.25 28.6333 13.3333C28.1067 13.4416 27.8125 13.3333 27.5908 13.1533C27.3683 12.9733 27.2192 12.67 27.1875 12.3466C27.1083 11.5425 27.3975 11.355 27.8542 11.2333C28.3892 11.1025 28.9908 11.3308 29.2317 11.6783Z" fill="#FF52C1"/>
</g>
<defs>
<clipPath id="clip0_535_889">
<rect width="40" height="33.3333" fill="white"/>
</clipPath>
</defs>
</svg>
