<svg width="518" height="425" viewBox="0 0 518 425" fill="none" xmlns="http://www.w3.org/2000/svg">
<g clip-path="url(#clip0_535_1475)">
<path opacity="0.1" d="M89.0782 424.051C138.275 424.051 178.156 417.255 178.156 408.872C178.156 400.49 138.275 393.694 89.0782 393.694C39.8817 393.694 0 400.49 0 408.872C0 417.255 39.8817 424.051 89.0782 424.051Z" fill="#00C7FA"/>
<path opacity="0.1" d="M428.927 420.458C478.124 420.458 518.005 413.662 518.005 405.279C518.005 396.897 478.124 390.101 428.927 390.101C379.73 390.101 339.849 396.897 339.849 405.279C339.849 413.662 379.73 420.458 428.927 420.458Z" fill="#00C7FA"/>
<path opacity="0.1" d="M138.886 0.23278C115.604 1.47785 92.0795 8.28018 73.9147 22.9022C57.9768 35.7375 46.4827 55.9167 49.2866 76.1921C52.5967 100.127 73.9501 117.538 81.8709 140.369C86.9676 155.047 86.173 171.243 82.8376 186.426C80.6917 196.21 77.3917 206.003 71.05 213.757C59.6268 227.706 39.0123 234.437 33.3993 251.57C27.2955 270.2 42.6766 288.471 57.1265 301.722C68.6611 312.295 80.7423 322.817 95.2782 328.612C105.907 332.854 117.441 334.377 128.875 334.984C160.447 336.641 192.012 331.597 221.496 320.185C235.622 314.704 249.287 307.755 264.071 304.45C295.577 297.405 327.995 307.563 359.926 312.32C387.298 316.386 415.115 316.468 442.51 312.563C459.749 310.103 477.56 305.665 490.542 294.064C503.701 282.287 510.281 264.056 509.552 246.392C508.823 228.728 501.373 211.723 490.4 197.855C476.228 179.943 456.682 167.199 439.676 151.934C422.36 136.382 407.63 118.173 396.038 97.991C389.357 86.3501 383.673 73.9956 375.019 63.7465C361.52 47.7732 341.943 38.2732 322.382 30.9344C277.255 14.0298 230.449 10.5881 183.4 3.1177C168.697 0.774335 153.781 -0.546654 138.886 0.23278V0.23278Z" fill="#00C7FA"/>
<g opacity="0.7">
<path d="M130.854 185.804H227.504V239.812H130.854V185.804Z" fill="#F6F7F9"/>
<path opacity="0.2" d="M149.049 219.84C154.606 219.84 159.111 215.335 159.111 209.778C159.111 204.221 154.606 199.716 149.049 199.716C143.492 199.716 138.987 204.221 138.987 209.778C138.987 215.335 143.492 219.84 149.049 219.84Z" fill="#00C7FA"/>
<path opacity="0.2" d="M171.379 197.854H215.22V200.612H171.379V197.854ZM171.379 204.884H193.715V207.642H171.379V204.884ZM171.379 211.914H207.502V214.673H171.379V211.914ZM171.379 218.944H215.22V221.703H171.379V218.944ZM203.093 229.092H215.225V234.422H203.093V229.092Z" fill="#00C7FA"/>
<path d="M212.224 36.5421H308.874V90.5506H212.224V36.5421Z" fill="#F6F7F9"/>
<path opacity="0.2" d="M230.424 70.5791C235.981 70.5791 240.486 66.0743 240.486 60.5174C240.486 54.9604 235.981 50.4556 230.424 50.4556C224.867 50.4556 220.362 54.9604 220.362 60.5174C220.362 66.0743 224.867 70.5791 230.424 70.5791Z" fill="#00C7FA"/>
<path opacity="0.2" d="M252.754 48.593H296.595V51.3514H252.754V48.593ZM252.754 55.6231H275.09V58.3815H252.754V55.6231ZM252.754 62.6532H288.877V65.4116H252.754V62.6532ZM252.754 69.6883H296.595V72.4467H252.754V69.6883ZM284.463 79.8311H296.595V85.1606H284.463V79.8311Z" fill="#00C7FA"/>
<path d="M244.393 127.219H341.043V181.228H244.393V127.219Z" fill="#F6F7F9"/>
<path opacity="0.2" d="M262.588 161.261C268.145 161.261 272.65 156.756 272.65 151.199C272.65 145.642 268.145 141.138 262.588 141.138C257.031 141.138 252.527 145.642 252.527 151.199C252.527 156.756 257.031 161.261 262.588 161.261Z" fill="#00C7FA"/>
<path opacity="0.2" d="M284.924 139.275H328.765V142.034H284.924V139.275ZM284.924 146.305H307.26V149.064H284.924V146.305ZM284.924 153.336H321.046V156.094H284.924V153.336ZM284.924 160.366H328.765V163.124H284.924V160.366ZM316.633 170.513H328.765V175.843H316.633V170.513Z" fill="#00C7FA"/>
</g>
<path d="M97.1154 68.6863H259.638V160.517H97.1154V68.6863Z" fill="url(#paint0_linear_535_1475)"/>
<path d="M98.2645 69.8252H258.503V159.374H98.2645V69.8252Z" fill="#F6F7F9"/>
<path opacity="0.2" d="M128.43 126.263C137.643 126.263 145.111 118.794 145.111 109.581C145.111 100.368 137.643 92.8992 128.43 92.8992C119.216 92.8992 111.748 100.368 111.748 109.581C111.748 118.794 119.216 126.263 128.43 126.263Z" fill="#00C7FA"/>
<path opacity="0.2" d="M165.463 89.8065H238.152V94.3768H165.463V89.8065ZM165.463 101.468H202.491V106.038H165.463V101.468ZM165.463 113.124H225.353V117.694H165.463V113.124ZM165.463 124.78H238.152V129.35H165.463V124.78Z" fill="#00C7FA"/>
<path d="M218.034 141.604H238.147V150.44H218.034V141.604Z" fill="#00C7FA"/>
<path d="M211.115 192.743H365.696V279.123H211.115V192.743Z" fill="url(#paint1_linear_535_1475)"/>
<path d="M212.184 193.334H364.629V278.525H212.184V193.334Z" fill="#F6F7F9"/>
<path opacity="0.2" d="M240.886 247.03C249.652 247.03 256.758 239.923 256.758 231.158C256.758 222.392 249.652 215.285 240.886 215.285C232.12 215.285 225.014 222.392 225.014 231.158C225.014 239.923 232.12 247.03 240.886 247.03Z" fill="#00C7FA"/>
<path opacity="0.2" d="M276.113 212.345H345.265V216.692H276.113V212.345ZM276.113 223.439H311.339V227.787H276.113V223.439ZM276.113 234.528H333.087V238.876H276.113V234.528ZM276.113 245.617H345.265V249.965H276.113V245.617Z" fill="#00C7FA"/>
<path opacity="0.5" d="M326.128 261.622H345.265V270.028H326.128V261.622Z" fill="#00C7FA"/>
<path opacity="0.1" d="M41.9375 145.724L42.3284 145.809C42.2142 145.73 42.0739 145.7 41.9375 145.724V145.724Z" fill="url(#paint2_linear_535_1475)"/>
<path d="M120.245 204.52C119.127 197.009 112.304 179.487 112.304 179.487C112.183 178.981 112.051 178.445 111.899 177.928C107.056 161.282 100.355 159.809 100.355 159.809L76.349 154.692C76.5472 154.816 76.7191 154.978 76.8552 155.168L76.4756 155.229C75.3739 153.929 74.6461 152.355 74.3701 150.674C74.3245 150.426 74.2841 150.167 74.2537 149.904C75.979 148.224 77.3247 146.194 78.2006 143.951C79.0765 141.707 79.4621 139.303 79.3317 136.898C79.2013 134.493 78.5579 132.144 77.4446 130.009C76.3313 127.873 74.7739 126.001 72.877 124.517C72.629 124.32 72.3709 124.132 72.1077 123.945C73.2414 122.746 73.2769 121.07 72.4316 119.39C70.5387 115.457 66.429 112.972 62.1978 111.763C58.9687 110.837 55.4663 110.538 52.2676 111.55C50.4405 112.127 48.7804 113.104 47.0697 113.959C43.8811 115.554 40.3686 116.814 37.9595 119.431C37.3977 120.043 36.8865 120.822 37.0484 121.627C37.175 122.229 37.6457 122.69 37.9544 123.226C38.6377 124.421 38.4605 125.924 38 127.225C37.5394 128.526 36.8409 129.755 36.5119 131.071C36.183 132.387 36.3146 133.977 37.3167 134.928C37.8036 135.309 38.3104 135.664 38.8351 135.991C39.3849 136.456 39.8671 136.996 40.2674 137.595L43.1118 141.437C44.4396 143.14 45.6245 144.949 46.6547 146.847C47.3582 148.239 47.9099 149.732 48.8563 150.977C49.1348 151.348 49.4521 151.687 49.8028 151.99C49.7117 151.954 49.6155 151.924 49.5244 151.883C49.9435 152.292 50.4415 152.611 50.988 152.82C51.5345 153.03 52.118 153.126 52.7029 153.103H52.8446C53.0616 153.099 53.2693 153.015 53.4266 152.865V153.371C53.4773 155.219 53.4722 157.182 53.3406 159.025L53.1179 158.913C52.7882 158.748 52.4179 158.68 52.051 158.719C51.6841 158.757 51.3359 158.9 51.0479 159.131L28.9353 176.845C28.9353 176.845 24.1321 183.425 24.8002 194.762L20.9284 211.778C20.9284 211.778 16.0847 226.218 19.8098 236.527C23.5349 246.837 25.6961 252.723 25.6961 252.723C25.6961 252.723 27.1841 264.435 29.4211 265.376C31.6582 266.318 32.6249 266.854 32.6249 266.854L33.0703 269.653C33.0703 269.653 33.2171 269.921 33.4803 270.387C35.11 273.216 41.1379 283.207 44.6454 282.144C45.0835 284.856 45.2749 287.602 45.2173 290.349L48.6792 313.63C48.6792 313.63 51.0985 319.962 50.9517 323.277C50.8049 326.592 53.7809 331.309 53.7809 331.309C51.9742 334.613 51.4447 338.466 52.2929 342.135C53.7101 348.325 55.4967 376.901 55.4967 376.901L58.1032 383.825L58.0273 391.923C57.8115 393.238 57.2607 394.475 56.428 395.516C54.7476 397.338 54.859 399.444 50.8606 401.929C46.8622 404.414 44.281 405.35 44.281 408.665C44.2763 409.123 44.2357 409.58 44.1595 410.032C43.785 412.456 43.0612 413.762 50.4861 414.471C59.2015 415.296 65.0118 409.607 65.0118 409.607C65.0118 409.607 66.2923 407.284 72.3304 406.347C72.3304 406.347 74.3903 406.236 74.5067 404.409C74.5472 403.781 74.5371 402.577 74.4814 401.251C74.3853 398.72 74.1423 395.774 73.8235 395.628C73.4236 395.45 72.7151 392.905 72.4721 391.983H74.1525C74.1525 391.983 75.7164 380.272 74.1525 372.68C72.5885 365.088 74.0057 359.718 74.0057 359.718L73.7071 339.686C73.7071 339.686 71.5965 337.545 73.2516 333.648C74.9066 329.75 73.2516 310.447 73.2516 310.447C73.2516 310.447 73.8539 303.523 75.5646 301.903C77.2753 300.284 75.6506 291.756 75.5646 291.31L78.6013 301.534C78.6013 301.534 79.9425 321.865 82.7768 325.55L83.5967 334.751C83.5967 334.751 89.4071 343.223 88.2885 347.794C87.17 352.364 89.483 368.859 89.483 368.859V385.728C89.483 385.728 86.8714 392.505 90.5256 394.934L92.0996 394.873C91.5632 395.38 91.1785 396.083 90.5813 396.706C89.8828 397.424 89.4881 400.157 89.2654 402.506C89.0781 404.495 89.0173 406.206 89.0173 406.206C89.0173 406.206 90.5813 408.691 93.4864 408.858C96.3916 409.025 106.003 416.374 106.003 416.374C106.003 416.374 115.508 416.374 117.963 415.867L118.109 415.832C118.898 415.581 119.561 415.038 119.962 414.314C120.457 413.476 120.618 412.481 120.412 411.53C120.104 410.077 118.955 408.493 116.399 407.132C110.027 403.766 109.08 400.618 109.08 400.618L104.905 394.362H105.502C105.502 394.362 105.132 387.732 109.672 380.292L109.379 347.515C109.379 347.515 111.236 336.244 108.038 330.13C108.038 330.13 107.774 323.647 109.915 321.657C112.056 319.668 107.066 299.56 107.066 299.56C107.066 299.56 106.054 288.77 104.819 278.92C109.844 283.688 115.063 266.515 115.953 263.463H116.085C116.085 263.463 116.06 263.382 116.024 263.241C115.989 263.099 116.085 263.023 116.085 263.023C116.085 262.998 114.971 259.05 115.786 259.855C116.601 260.659 118.621 257.648 118.621 257.648C118.621 257.648 118.322 241.219 121.824 232.939C125.327 224.659 120.245 204.52 120.245 204.52V204.52ZM105.269 214.972L105.294 214.926C105.8 224.957 105.193 246.361 105.193 246.361C105.193 246.361 104.505 249.105 103.766 252.334L103.234 231.998L102.728 212.846L105.269 214.972ZM41.1278 208.058C41.1278 208.058 43.6584 239.731 41.1278 244.296C40.404 245.597 39.8018 247.91 39.3007 250.557C38.4656 248.361 36.6942 243.203 37.3268 240.47C38.1467 236.927 35.687 227.65 35.687 227.432C35.687 227.215 35.4643 222.275 37.2509 218.479C39.0375 214.683 37.8481 213.063 37.8481 213.063C37.8481 213.063 39.3412 206.879 41.1278 208.058V208.058Z" fill="url(#paint3_linear_535_1475)"/>
<path d="M47.2923 279.391C45.0907 289.089 36.3145 274.421 34.3153 270.904L33.9104 270.175L34.8619 265.716L39.8928 263.666C40.6874 264.082 41.44 264.573 42.14 265.134C44.9085 267.28 48.9929 271.88 47.2923 279.391ZM115.366 263.519L115.31 263.737C115.31 263.803 115.265 263.879 115.24 263.975C114.379 267.012 109.262 284.048 104.322 279.315C98.917 274.123 101.544 262.198 101.544 262.198H101.594L112.967 261.034L115.219 263.352L115.366 263.519Z" fill="#EFB7B9"/>
<path d="M108.787 347.389L109.075 379.922C104.621 387.312 104.98 393.891 104.98 393.891L90.3028 394.473C86.7195 392.064 89.2906 385.338 89.2906 385.338V368.59C89.2906 368.59 86.9979 352.222 88.0911 347.667C89.1843 343.112 83.4854 334.725 83.4854 334.725L82.6857 325.59C79.902 321.936 78.5861 301.751 78.5861 301.751L75.5949 291.629C75.6708 292.069 77.2246 300.577 75.5949 302.141C73.9652 303.705 73.3274 310.624 73.3274 310.624C73.3274 310.624 74.9369 329.781 73.3274 333.652C71.718 337.524 73.7627 339.726 73.7627 339.726L74.0613 359.612C74.0613 359.612 72.6695 364.951 74.203 372.482C75.7366 380.013 74.203 391.639 74.203 391.639H58.4119L58.4828 383.541L55.9269 376.668C55.9269 376.668 54.1706 348.3 52.7838 342.16C51.9503 338.519 52.4683 334.698 54.2415 331.41C54.2415 331.41 51.3211 326.729 51.4679 323.439C51.6147 320.149 49.2359 313.863 49.2359 313.863L45.8347 290.758C45.9305 286.313 45.3642 281.878 44.1544 277.599C42.1755 271.019 39.2551 262.39 39.2551 262.39L42.5551 262.684L59.2167 264.167C59.2167 264.167 99.7066 261.444 101.534 263.706C101.918 264.444 102.178 265.241 102.303 266.064C104.12 274.238 106.524 299.828 106.524 299.828C106.524 299.828 111.423 319.79 109.318 321.764C107.212 323.737 107.476 330.17 107.476 330.17C110.614 336.203 108.787 347.389 108.787 347.389V347.389Z" fill="#444053"/>
<path d="M74.5475 403.959C74.4311 405.771 72.4066 405.882 72.4066 405.882C66.4849 406.814 65.2297 409.122 65.2297 409.122C65.2297 409.122 59.5257 414.765 50.9822 413.97C43.6991 413.272 44.4026 411.946 44.7771 409.567C44.8517 409.119 44.8906 408.665 44.8935 408.211C44.8935 404.921 47.4242 403.984 51.3669 401.52C55.3096 399.055 55.2033 396.965 56.8482 395.158C58.4932 393.351 58.6602 389.843 58.6602 389.843C60.5227 386.604 65.2398 390.349 65.2398 390.349C65.4575 391.498 72.4775 391.362 72.4775 391.362C72.4775 391.362 73.4087 395.092 73.8845 395.31C74.1983 395.456 74.4362 398.382 74.5323 400.877C74.5779 402.142 74.5829 403.342 74.5475 403.959V403.959Z" fill="#B07473"/>
<path opacity="0.1" d="M74.5474 403.958C74.431 405.77 72.4065 405.881 72.4065 405.881C66.4849 406.813 65.2297 409.121 65.2297 409.121C65.2297 409.121 59.5256 414.764 50.9822 413.969C43.6991 413.271 44.4026 411.945 44.7771 409.566C48.0315 410.376 54.2569 411.499 57.8908 409.526C62.9521 406.782 66.5608 404.864 66.5608 404.864L74.5221 400.81C74.5778 402.141 74.5829 403.341 74.5474 403.958V403.958Z" fill="black"/>
<path d="M119.178 413.721C118.789 414.444 118.136 414.988 117.356 415.24C117.31 415.256 117.262 415.268 117.214 415.275C114.8 415.781 105.477 415.781 105.477 415.781C105.477 415.781 96.0276 408.463 93.1933 408.296C90.359 408.129 88.8052 405.664 88.8052 405.664C88.8052 405.664 88.8608 403.963 89.043 401.99C89.2657 399.656 89.6555 396.928 90.3387 396.23C91.604 394.914 91.8571 393.107 94.7268 394.256C94.7268 394.256 98.7758 387.115 103.554 392.631L108.493 400.127C108.493 400.127 109.425 403.25 115.68 406.595C118.186 407.936 119.314 409.516 119.613 410.958C119.818 411.901 119.663 412.887 119.178 413.721V413.721Z" fill="#B07473"/>
<path opacity="0.1" d="M119.178 413.722C118.621 414.192 117.999 414.699 117.356 415.24C117.31 415.257 117.262 415.269 117.214 415.276C114.8 415.782 105.477 415.782 105.477 415.782C105.477 415.782 96.0276 408.463 93.1933 408.296C90.359 408.129 88.8052 405.664 88.8052 405.664C88.8052 405.664 88.8608 403.964 89.043 401.99C91.9431 402.86 96.3464 404.394 97.5257 406.039C99.3326 408.569 104.824 412.067 104.824 412.067C104.824 412.067 115.063 411.085 119.613 410.948C119.821 411.895 119.666 412.885 119.178 413.722V413.722Z" fill="black"/>
<path d="M79.3252 158.558L65.8319 172.816C65.8319 172.816 49.489 171.611 52.3436 166.783C53.7962 164.328 54.0239 159.191 53.8974 154.707C53.7759 150.39 53.3305 146.715 53.3305 146.715C53.3305 146.715 76.253 135.307 74.4967 145.946C74.124 147.951 74.1017 150.006 74.4309 152.019C75.428 157.394 79.3252 158.558 79.3252 158.558V158.558Z" fill="#EFB7B9"/>
<path opacity="0.1" d="M74.4917 145.946C74.119 147.951 74.0967 150.006 74.4259 152.019C72.8584 153.608 70.9906 154.868 68.9312 155.727C66.8719 156.587 64.6622 157.028 62.4307 157.025C59.313 157.025 55.9776 154.494 53.4723 153.001C53.3508 148.684 53.3255 146.715 53.3255 146.715C53.3255 146.715 76.248 135.307 74.4917 145.946Z" fill="black"/>
<path d="M79.3253 139.255C79.3265 143.083 78.0279 146.798 75.6421 149.791C73.2563 152.784 69.9247 154.879 66.1931 155.731C62.4614 156.584 58.5509 156.144 55.102 154.483C51.6531 152.823 48.8704 150.04 47.2095 146.591C45.5486 143.143 45.1081 139.232 45.9601 135.501C46.8121 131.769 48.9061 128.437 51.8991 126.051C54.8922 123.665 58.6068 122.366 62.4345 122.366C66.2623 122.367 69.9764 123.668 72.9683 126.055C74.9508 127.637 76.5516 129.645 77.6521 131.93C78.7525 134.216 79.3244 136.719 79.3253 139.255V139.255Z" fill="#EFB7B9"/>
<path opacity="0.1" d="M102.298 266.024C98.0923 276.036 71.0347 276.243 71.0347 276.243V265.331L69.3949 265.225C70.1035 268.348 68.3826 275.97 68.3826 275.97C46.9988 279.007 41.7907 266.814 41.7907 266.814L42.5297 262.644L59.1914 264.126C59.1914 264.126 99.6815 261.404 101.509 263.666C101.9 264.403 102.167 265.2 102.298 266.024V266.024Z" fill="black"/>
<path d="M71.0347 274.927V264.01L69.3949 263.909C70.1034 267.032 68.3826 274.654 68.3826 274.654C52.2928 276.922 45.3538 270.605 42.9092 267.315C42.472 266.75 42.097 266.139 41.7907 265.493L48.3147 228.754L49.8331 174.684L52.1866 165.199L52.7332 160.644V160.594L52.7888 160.619L54.4489 161.333L64.4095 165.635L75.7822 157.096L75.9492 156.97L76.511 156.545L77.4473 157.299L79.7704 159.161L87.2308 207.314C87.2308 207.314 100.167 244.393 102.566 259.359C102.663 259.956 102.744 260.513 102.804 261.034C104.378 274.674 71.0347 274.927 71.0347 274.927V274.927Z" fill="#E1E7EF"/>
<path d="M65.6597 167.639C66.1908 167.639 66.6214 167.209 66.6214 166.677C66.6214 166.146 66.1908 165.716 65.6597 165.716C65.1286 165.716 64.6981 166.146 64.6981 166.677C64.6981 167.209 65.1286 167.639 65.6597 167.639Z" fill="#67647E"/>
<path d="M66.105 176.41C66.6361 176.41 67.0667 175.98 67.0667 175.449C67.0667 174.917 66.6361 174.487 66.105 174.487C65.5739 174.487 65.1434 174.917 65.1434 175.449C65.1434 175.98 65.5739 176.41 66.105 176.41Z" fill="#67647E"/>
<path d="M67.0617 190.617C67.5928 190.617 68.0233 190.186 68.0233 189.655C68.0233 189.124 67.5928 188.693 67.0617 188.693C66.5306 188.693 66.1 189.124 66.1 189.655C66.1 190.186 66.5306 190.617 67.0617 190.617Z" fill="#67647E"/>
<path d="M68.6559 205.911C69.187 205.911 69.6175 205.481 69.6175 204.95C69.6175 204.418 69.187 203.988 68.6559 203.988C68.1248 203.988 67.6943 204.418 67.6943 204.95C67.6943 205.481 68.1248 205.911 68.6559 205.911Z" fill="#67647E"/>
<path d="M69.6124 220.28C70.1435 220.28 70.574 219.85 70.574 219.318C70.574 218.787 70.1435 218.357 69.6124 218.357C69.0813 218.357 68.6508 218.787 68.6508 219.318C68.6508 219.85 69.0813 220.28 69.6124 220.28Z" fill="#67647E"/>
<path d="M70.5743 235.581C71.1054 235.581 71.536 235.151 71.536 234.62C71.536 234.089 71.1054 233.658 70.5743 233.658C70.0432 233.658 69.6127 234.089 69.6127 234.62C69.6127 235.151 70.0432 235.581 70.5743 235.581Z" fill="#67647E"/>
<path d="M70.1893 250.719C70.7204 250.719 71.151 250.289 71.151 249.758C71.151 249.226 70.7204 248.796 70.1893 248.796C69.6582 248.796 69.2277 249.226 69.2277 249.758C69.2277 250.289 69.6582 250.719 70.1893 250.719Z" fill="#67647E"/>
<path opacity="0.1" d="M53.4113 234.098C53.4113 234.098 52.3383 248.169 50.3746 252.258C48.4108 256.348 47.52 267.832 47.52 267.832L42.9649 267.325C42.5277 266.76 42.1527 266.149 41.8464 265.503L48.3703 228.764L49.8887 174.694L52.2422 165.21L52.7888 160.655C52.8066 160.641 52.8275 160.632 52.8495 160.629C53.105 160.509 53.3848 160.448 53.6673 160.452C53.9499 160.457 54.2276 160.526 54.4793 160.655L54.7019 160.766C54.6362 160.953 54.5704 161.146 54.5096 161.343C52.7281 166.936 52.06 177.25 52.06 177.25C52.06 177.25 54.621 196.114 54.9095 204.89C55.198 213.666 53.4113 234.098 53.4113 234.098V234.098Z" fill="black"/>
<path opacity="0.1" d="M42.14 265.133C42.0898 265.25 42.0323 265.363 41.9679 265.472C40.1914 268.474 35.6869 270.382 34.3153 270.903L33.9104 270.174L34.8619 265.715L39.8928 263.665C40.6875 264.081 41.44 264.573 42.14 265.133V265.133Z" fill="black"/>
<path d="M29.9627 193.33L25.7973 195.83L21.9912 212.72C21.9912 212.72 17.2387 227.053 20.898 237.287C24.5573 247.521 26.6881 253.356 26.6881 253.356C26.6881 253.356 28.1508 264.997 30.3423 265.933C32.5338 266.87 33.4904 267.396 33.4904 267.396L33.9257 270.175C33.9257 270.175 39.8777 268.15 41.9832 264.607C44.0887 261.064 40.4344 252.202 40.4344 252.202C40.4344 252.202 37.2914 244.671 38.0961 241.164C38.9009 237.656 36.4867 228.44 36.4867 228.222C36.4867 228.004 36.269 223.1 38.005 219.335C39.741 215.569 38.5921 213.965 38.5921 213.965L37.4939 203.215L29.9627 193.33Z" fill="#67647E"/>
<path opacity="0.1" d="M102.643 262.861C102.643 262.861 91.604 267.032 88.0915 263.368C84.5789 259.703 84.9484 242.616 84.9484 242.616C84.9484 242.616 81.5877 211.029 79.462 205.841C77.3363 200.654 78.4497 163.211 78.4497 163.211C78.4497 163.211 77.0123 158.377 75.7825 157.097C75.7051 157.012 75.6165 156.939 75.5193 156.879L75.9495 156.97L77.4679 157.299L79.791 159.162L87.2513 207.314C87.2513 207.314 100.188 244.393 102.587 259.359L102.643 262.861Z" fill="black"/>
<path opacity="0.1" d="M115.367 263.96H115.24C113.853 264.137 101.575 265.62 101.529 263.069C101.529 262.773 101.546 262.477 101.58 262.183L112.952 261.019L115.205 263.337C115.245 263.489 115.28 263.621 115.311 263.722L115.367 263.96Z" fill="black"/>
<path d="M103.619 176.41L111.692 180.616C111.692 180.616 118.388 198.006 119.486 205.466C119.486 205.466 124.456 225.443 121.005 233.657C117.553 241.872 117.862 258.184 117.862 258.184C117.862 258.184 115.888 261.18 115.083 260.376C114.278 259.571 115.377 263.519 115.377 263.519C115.377 263.519 101.595 265.351 101.529 262.638C101.463 259.925 104.692 246.989 104.692 246.989C104.692 246.989 105.568 216.206 104.323 211.383C103.078 206.559 103.619 176.41 103.619 176.41V176.41Z" fill="#67647E"/>
<path opacity="0.1" d="M79.5376 209.197C79.5376 209.197 74.9824 220.306 73.54 221.04C72.0975 221.774 73.8335 224.694 73.8335 224.694C73.8335 224.694 82.0986 213.144 79.5376 209.197V209.197ZM76.8349 170.22C76.8855 170.007 71.4193 175.58 69.9617 176.41C68.504 177.24 75.276 176.364 76.8349 170.22ZM61.6106 208.316C61.6106 208.316 53.2748 213.711 54.368 215.837C55.4612 217.963 61.6106 208.316 61.6106 208.316ZM76.7589 286.993C76.7589 286.993 83.8447 291.548 94.8934 292.697L76.7589 286.993ZM59.7228 297.961C59.7228 297.961 66.3024 306.221 69.3037 306.443C72.305 306.666 59.7228 297.961 59.7228 297.961ZM68.9343 330.353C68.6407 330.5 65.2041 337.808 61.6967 338.031C58.1892 338.253 68.9343 330.353 68.9343 330.353ZM99.4283 346.362C99.4283 346.362 105.947 344.904 107.395 349.581C107.395 349.581 106.959 348.118 99.4283 346.362ZM95.0402 373.125C95.0402 373.125 102.936 371.516 104.616 373.713C106.296 375.909 95.0402 373.125 95.0402 373.125V373.125ZM72.6897 376.856C72.6897 376.927 64.6474 378.465 64.9662 379.487C65.2851 380.51 73.54 380.363 73.8335 378.754C73.8901 378.554 73.905 378.344 73.8773 378.139C73.8497 377.933 73.7801 377.735 73.6729 377.557C73.5657 377.379 73.4231 377.225 73.254 377.104C73.0849 376.984 72.8928 376.899 72.6897 376.856ZM92.4083 383.8C92.4083 383.8 105.618 382.19 104.788 384.969C103.958 387.747 92.4083 383.8 92.4083 383.8ZM23.2363 221.04C23.3122 221.258 31.9366 222.427 33.1057 225.205C33.1057 225.205 24.6281 221.258 23.3122 221.258L23.2363 221.04ZM35.3731 243.633C35.3731 243.633 28.2064 245.901 28.7125 249.337C29.2187 252.774 27.9888 247.733 35.3731 243.633ZM32.0327 261.034C32.0327 261.034 34.6443 257.451 37.1294 258.108C39.6145 258.766 32.0327 261.034 32.0327 261.034ZM72.963 126.055C72.7104 126.299 72.4281 126.51 72.1228 126.683C70.0427 127.887 69.4859 129.72 68.4889 131.881C67.5778 133.84 66.5707 135.93 64.7233 137.023C62.3445 138.455 59.2065 137.929 56.7316 139.184C55.6347 139.759 54.734 140.648 54.1445 141.737C53.5549 142.826 53.3032 144.066 53.4215 145.298C53.5824 146.249 53.8193 147.185 54.1301 148.097C54.6885 150.071 54.9428 152.12 54.8842 154.171C54.8917 154.233 54.8917 154.296 54.8842 154.358C52.764 153.3 50.89 151.808 49.384 149.979C47.8779 148.149 46.7735 146.024 46.1425 143.74C45.5115 141.456 45.3679 139.065 45.7212 136.722C46.0745 134.379 46.9167 132.136 48.193 130.14C49.4694 128.144 51.1515 126.438 53.1299 125.134C55.1084 123.83 57.339 122.957 59.6769 122.571C62.0148 122.186 64.4077 122.296 66.7001 122.895C68.9926 123.495 71.1333 124.57 72.9833 126.05L72.963 126.055Z" fill="black"/>
<path d="M72.5227 120.974C70.6652 117.072 66.6314 114.607 62.4812 113.382C59.3129 112.466 55.8763 112.168 52.7333 113.175C50.9416 113.747 49.3068 114.693 47.6315 115.564C44.4986 117.148 41.0519 118.398 38.6984 121C38.1518 121.602 37.6457 122.381 37.8076 123.181C37.9291 123.778 38.3947 124.234 38.6934 124.765C39.3665 125.95 39.1995 127.443 38.7389 128.733C38.2783 130.024 37.6052 131.228 37.2813 132.554C36.9574 133.88 37.0839 135.434 38.0658 136.381C38.5402 136.757 39.0334 137.108 39.5437 137.433C40.0801 137.9 40.5516 138.436 40.9456 139.028L43.7344 142.839C45.046 144.53 46.2141 146.328 47.2266 148.214C47.9251 149.596 48.4616 151.074 49.3878 152.308C50.314 153.543 51.7666 154.535 53.3052 154.399C53.4241 154.403 53.5422 154.378 53.6496 154.327C53.7571 154.276 53.8507 154.2 53.9226 154.105C53.9831 153.985 54.011 153.85 54.0036 153.716C54.0666 151.664 53.8122 149.616 53.2495 147.642C52.9387 146.73 52.7018 145.794 52.5409 144.843C52.4233 143.611 52.6753 142.371 53.2648 141.282C53.8542 140.193 54.7546 139.304 55.851 138.729C58.331 137.479 61.469 138.005 63.8477 136.573C65.6951 135.455 66.7023 133.385 67.6133 131.426C68.6256 129.285 69.1671 127.432 71.2473 126.228C73.3275 125.023 73.5501 123.024 72.5227 120.974Z" fill="#585268"/>
<path opacity="0.1" d="M64.9562 397.055C64.9562 397.055 67.5273 400.345 66.8693 402.208C66.2113 404.07 64.9562 397.055 64.9562 397.055ZM99.9144 405.28C99.9144 405.28 100.486 400.867 102.789 400.826C105.092 400.786 105.203 400.588 106.96 401.261C108.716 401.934 110.361 402.987 109.84 403.149C109.318 403.311 106.803 400.619 104.272 401.99C102.664 402.864 101.196 403.973 99.9144 405.28V405.28ZM57.2478 171.147L64.4551 166.085C64.4551 166.085 53.872 159.83 52.6117 160.71C51.3515 161.591 50.486 169.486 50.486 169.486L57.2478 171.147Z" fill="black"/>
<path d="M57.2174 170.817L64.455 165.634C64.455 165.634 53.872 159.384 52.6117 160.259C51.3514 161.135 50.486 169.476 50.486 169.476L57.2174 170.817Z" fill="#E1E7EF"/>
<path opacity="0.03" d="M57.2174 170.817L64.455 165.634C64.455 165.634 53.872 159.384 52.6117 160.259C51.3514 161.135 50.486 169.476 50.486 169.476L57.2174 170.817Z" fill="black"/>
<path d="M53.8063 160.32L53.5886 160.209C53.2668 160.045 52.9042 159.977 52.5449 160.015C52.1855 160.053 51.8448 160.194 51.5641 160.421L29.8614 178.029C29.8614 178.029 25.1443 184.553 25.8124 195.815L38.6073 213.949C38.6073 213.949 40.07 207.805 41.8263 208.974C41.8263 208.974 44.3113 240.415 41.8263 244.949C39.3412 249.484 38.2429 266.445 38.2429 266.445L46.6496 267.396C46.6496 267.396 47.5252 255.917 49.4991 251.823C51.473 247.728 52.5359 233.658 52.5359 233.658C52.5359 233.658 54.3124 213.215 54.0188 204.434C53.7253 195.653 51.1693 176.8 51.1693 176.8C51.1693 176.8 51.883 165.746 53.8063 160.32V160.32Z" fill="#67647E"/>
<path opacity="0.1" d="M75.4229 167.938L66.4088 164.597C66.4088 164.597 77.8928 152.025 79.3201 158.999L75.4229 167.938Z" fill="black"/>
<path d="M75.4229 167.487L66.4088 164.151C66.4088 164.151 77.8928 151.574 79.3201 158.548L75.4229 167.487Z" fill="#E1E7EF"/>
<path opacity="0.03" d="M75.4229 167.487L66.4088 164.151C66.4088 164.151 77.8928 151.574 79.3201 158.548L75.4229 167.487Z" fill="black"/>
<path opacity="0.1" d="M75.1344 156.803C75.2683 156.779 75.4065 156.807 75.52 156.882L75.1344 156.803Z" fill="black"/>
<path d="M76.0098 155.922L99.9394 161.085C99.9394 161.085 106.519 162.547 111.272 179.067C116.024 195.587 104.763 215.837 104.763 215.837L102.278 213.727L103.523 261.986C103.523 261.986 92.4791 266.151 88.9716 262.492C85.4642 258.833 85.8235 241.741 85.8235 241.741C85.8235 241.741 82.4629 210.143 80.3371 204.94C78.2114 199.737 79.3249 162.309 79.3249 162.309C79.3249 162.309 77.3459 155.634 76.0098 155.922V155.922Z" fill="#67647E"/>
<path opacity="0.1" d="M97.89 186.674C97.5509 186.988 97.1611 201.59 98.6239 212.704C99.5214 219.473 100.907 226.168 102.769 232.737L100.598 188.198C100.598 188.198 98.9123 185.707 97.89 186.674ZM94.9646 174.097C95.5517 174.461 98.1127 180.53 96.9385 183.02C95.7642 185.51 94.9646 174.097 94.9646 174.097ZM72.3812 120.974C71.2093 118.66 69.3798 116.745 67.1226 115.467C68.7984 116.663 70.1529 118.253 71.0653 120.098C72.0775 122.148 71.7941 124.203 69.7848 125.367C67.7755 126.531 67.1479 128.404 66.1559 130.565C65.2448 132.524 64.2326 134.614 62.3852 135.707C60.0064 137.145 56.8735 136.618 54.3935 137.863C53.2967 138.44 52.3962 139.329 51.8067 140.419C51.2172 141.509 50.9654 142.749 51.0834 143.983C51.2419 144.933 51.4789 145.87 51.792 146.781C52.3537 148.755 52.6064 150.804 52.5411 152.855C52.5498 152.989 52.5237 153.123 52.4652 153.245C52.3932 153.339 52.2996 153.415 52.1921 153.466C52.0847 153.518 51.9666 153.542 51.8477 153.538C51.2282 153.587 50.6068 153.472 50.0459 153.204C50.4549 153.609 50.9427 153.925 51.479 154.133C52.0154 154.341 52.5888 154.437 53.1636 154.414C53.2825 154.418 53.4006 154.393 53.5081 154.342C53.6155 154.291 53.7091 154.215 53.7811 154.12C53.8393 153.999 53.8671 153.865 53.8621 153.73C53.9225 151.679 53.6682 149.631 53.1079 147.657C52.7948 146.745 52.5578 145.809 52.3994 144.858C52.2817 143.626 52.5337 142.386 53.1232 141.297C53.7127 140.208 54.613 139.319 55.7094 138.744C58.1895 137.494 61.3224 138.02 63.7012 136.588C65.5485 135.469 66.5608 133.399 67.4718 131.441C68.4841 129.3 69.0205 127.447 71.1007 126.243C73.1809 125.038 73.4036 123.024 72.3812 120.974V120.974Z" fill="black"/>
<path opacity="0.1" d="M490.046 388.381C501.507 388.381 510.797 387.105 510.797 385.532C510.797 383.958 501.507 382.682 490.046 382.682C478.586 382.682 469.295 383.958 469.295 385.532C469.295 387.105 478.586 388.381 490.046 388.381Z" fill="#00C7FA"/>
<path opacity="0.1" d="M327.373 414.294C335.518 414.294 342.121 413.388 342.121 412.27C342.121 411.152 335.518 410.245 327.373 410.245C319.227 410.245 312.624 411.152 312.624 412.27C312.624 413.388 319.227 414.294 327.373 414.294Z" fill="#00C7FA"/>
<path opacity="0.1" d="M195.405 399.286C203.551 399.286 210.154 398.379 210.154 397.261C210.154 396.143 203.551 395.237 195.405 395.237C187.26 395.237 180.657 396.143 180.657 397.261C180.657 398.379 187.26 399.286 195.405 399.286Z" fill="#00C7FA"/>
<path d="M203.529 392.656C204.458 391.899 205.135 390.877 205.468 389.725C205.721 388.566 205.225 387.169 204.111 386.744C202.866 386.269 201.535 387.134 200.528 388.005C199.521 388.875 198.362 389.872 197.046 389.685C197.724 389.069 198.231 388.288 198.518 387.418C198.806 386.548 198.863 385.619 198.685 384.72C198.626 384.348 198.469 383.999 198.23 383.708C197.537 382.969 196.281 383.288 195.456 383.87C192.825 385.717 192.091 389.295 192.075 392.509C191.812 391.35 192.035 390.14 192.025 388.966C192.015 387.792 191.696 386.436 190.689 385.818C190.07 385.475 189.372 385.301 188.664 385.312C187.485 385.266 186.164 385.388 185.359 386.253C184.347 387.326 184.615 389.128 185.486 390.302C186.356 391.477 187.687 392.231 188.912 393.046C189.892 393.63 190.728 394.427 191.357 395.379C191.433 395.512 191.494 395.653 191.539 395.799H198.959C200.615 394.959 202.152 393.902 203.529 392.656V392.656ZM498.464 381.977C499.399 381.221 500.082 380.199 500.423 379.046C500.676 377.887 500.18 376.516 499.066 376.065C497.821 375.589 496.49 376.455 495.483 377.325C494.476 378.196 493.317 379.193 491.996 379.006C492.676 378.391 493.185 377.61 493.472 376.74C493.759 375.87 493.816 374.939 493.635 374.041C493.581 373.667 493.423 373.317 493.18 373.028C492.492 372.289 491.236 372.608 490.411 373.19C487.78 375.038 487.046 378.616 487.03 381.83C486.762 380.671 486.99 379.461 486.98 378.287C486.97 377.113 486.646 375.756 485.644 375.139C485.025 374.796 484.327 374.622 483.619 374.633C482.435 374.587 481.119 374.709 480.309 375.574C479.297 376.647 479.565 378.449 480.441 379.623C481.316 380.797 482.642 381.552 483.867 382.366C484.847 382.951 485.683 383.748 486.312 384.7C486.386 384.834 486.447 384.974 486.494 385.12H493.909C495.56 384.28 497.092 383.223 498.464 381.977V381.977ZM331.377 405.638C332.305 404.88 332.983 403.858 333.32 402.707C333.568 401.543 333.072 400.177 331.964 399.726C330.719 399.251 329.387 400.111 328.38 400.987C327.373 401.862 326.214 402.849 324.893 402.667C325.572 402.052 326.081 401.271 326.368 400.401C326.655 399.531 326.712 398.601 326.533 397.702C326.476 397.33 326.318 396.98 326.077 396.69C325.384 395.951 324.134 396.27 323.304 396.852C320.672 398.704 319.938 402.277 319.923 405.496C319.66 404.337 319.882 403.128 319.877 401.953C319.872 400.779 319.543 399.423 318.541 398.805C317.922 398.464 317.224 398.29 316.517 398.299C315.332 398.259 314.016 398.375 313.207 399.241C312.194 400.319 312.463 402.12 313.338 403.29C314.214 404.459 315.54 405.213 316.76 406.033C317.752 406.624 318.597 407.434 319.229 408.401C319.302 408.534 319.363 408.673 319.412 408.816H326.821C328.476 407.967 330.008 406.898 331.377 405.638V405.638Z" fill="#00C7FA"/>
<path d="M480.106 174.694C473.466 174.562 467.605 169.855 464.284 164.146C463.415 162.783 462.868 161.239 462.685 159.632C462.708 159.265 462.769 158.902 462.867 158.548C463.08 158.013 463.25 157.461 463.373 156.899C463.401 156.673 463.401 156.446 463.373 156.22V156.19C463.535 154.965 462.817 153.786 461.916 152.941C461.015 152.095 459.917 151.483 458.99 150.668C456.136 148.163 455.27 144.144 455.215 140.318V140.116C455.245 138.481 455.377 136.836 455.361 135.196C455.384 134.265 455.344 133.333 455.24 132.407C454.967 130.089 454.086 127.731 452.264 126.253C447.511 122.401 439.52 126.41 434.605 122.766C433.406 121.88 432.439 120.559 430.992 120.235C429.893 119.972 428.754 120.326 427.687 120.68C424.063 121.875 420.024 123.449 418.607 126.972C417.797 128.996 418.025 131.268 417.281 133.303C416.775 134.665 415.879 135.834 415.211 137.129C414.66 138.101 414.391 139.207 414.436 140.323C414.38 140.901 414.462 141.483 414.674 142.024C414.924 142.669 415.327 143.244 415.848 143.699C415.658 144.1 415.42 144.478 415.14 144.822C414.214 145.956 412.791 146.766 411.83 147.859C410.048 149.924 410.114 152.733 410.995 155.163C411.875 157.592 413.454 159.804 414.537 162.167C415.008 163.18 415.388 164.344 414.897 165.366C414.558 166.075 413.849 166.611 413.297 167.223C412.489 168.13 411.984 169.266 411.85 170.473C401.004 172.948 400.999 181.658 400.999 181.658L395.148 196.406C395.148 196.406 394.211 198.886 393.123 202.161L386.189 200.921L390.977 208.989C390.061 212.273 389.418 215.32 389.631 216.849C389.631 216.849 387.48 226.971 391.306 228.738L399.759 232.539C400.123 232.76 400.517 232.93 400.928 233.045L401.272 233.197C401.395 233.257 401.53 233.288 401.667 233.288C401.804 233.288 401.939 233.257 402.061 233.197H402.198C402.37 233.214 402.544 233.19 402.704 233.126C402.894 233.026 403.043 232.863 403.124 232.665C403.126 232.65 403.126 232.635 403.124 232.62L405.655 231.886L407.801 234.416C408.768 235.094 409.714 235.687 410.64 236.218L407.34 269.217C407.34 269.217 406.804 313.078 405.189 323.064C404.587 326.763 404.582 329.284 404.81 331L404.749 331.111C405.149 333.93 406.186 334.487 406.186 334.487V334.446L406.247 334.487C406.736 333.207 407.316 331.964 407.983 330.767V331.486C407.953 335.211 407.836 340.419 407.477 343.805C406.819 349.564 409.152 368.645 409.152 368.645L409.957 386.005C410.088 388.95 409.405 391.875 407.983 394.457C406.075 397.924 403.59 402.798 403.428 404.959C403.421 405.077 403.421 405.196 403.428 405.314L399.197 410.238C399.197 410.238 397.577 412.733 401.221 413.741C403.18 414.287 406.566 413.741 409.279 413.098C410.465 412.826 411.524 412.16 412.283 411.208C413.043 410.257 413.457 409.077 413.459 407.859C414.158 405.468 415.332 403.242 416.911 401.315L417.594 405.309L422.15 406.437L422.732 395.49C422.968 394.874 423.075 394.216 423.045 393.556C423.941 385.772 420.935 386.471 420.935 386.471C421.011 386.544 421.063 386.64 421.082 386.744C421.031 386.658 420.98 386.567 420.935 386.476C419.088 382.832 419.993 376.859 419.993 376.859C419.993 376.859 422.387 359.51 423.228 354.929C423.82 351.695 423.577 341.097 423.379 335.16C423.379 334.912 423.379 334.654 423.354 334.446C430.404 334.355 439.044 334.112 445.117 333.525V334.244L443.994 375.24C443.918 377.852 443.389 380.431 442.43 382.862C442.43 382.908 442.389 382.953 442.374 382.999C441.03 386.424 440.264 390.048 440.107 393.723L439.601 406.751V407.11C438.695 407.46 437.268 408.467 437.227 411.387C437.166 415.664 444.702 414.237 444.702 414.237C452.239 414.237 452.294 406.392 452.294 406.392C452.294 406.392 452.537 399.2 452.892 394.386C453.246 389.573 451.758 390.636 451.758 390.636L451.647 404.301V404.408V392.408L451.763 390.666V390.616L451.788 390.246L452.725 376.126C452.725 376.126 459.664 352.591 460.742 348.076C461.506 344.872 461.187 335.206 460.934 329.856C460.934 329.608 460.934 329.375 460.904 329.147C463.049 328.955 464.953 328.935 465.717 328.935H466.066C466.066 328.935 465.707 291.137 464.811 276.875C463.915 262.612 462.478 249.595 458.884 245.672C456.718 243.304 453.696 235.985 451.641 230.565C455.927 232.421 460.374 233.878 464.927 234.917C476.295 237.296 474.741 227.427 474.741 227.427L473.587 208.766H473.663C473.622 203.877 473.202 198.999 472.408 194.174C471.811 190.475 470.889 186.648 469.482 183.546C470.717 183.075 471.932 182.534 473.126 182.028C476.214 180.666 479.706 178.733 480.141 175.402H479.989C480.047 175.17 480.085 174.933 480.106 174.694V174.694ZM409.643 201.69C409.674 203.619 409.598 206.959 409.486 210.659L405.878 205.841L409.496 199.97L409.643 201.69ZM459.527 218.752L453.514 216.818C454.581 215.156 455.827 213.615 457.229 212.223L457.735 211.717L457.548 211.757L457.841 211.494L458.014 211.453L457.735 211.717L458.064 211.651C458.427 213.161 459.128 214.57 460.114 215.771C462.26 218.16 459.507 218.752 459.507 218.752H459.527Z" fill="url(#paint4_linear_535_1475)"/>
<path d="M422.981 392.222L422.272 405.553L417.788 404.434L416.842 398.887L422.981 392.222Z" fill="#A27772"/>
<path opacity="0.1" d="M422.981 392.222L422.272 405.553L417.788 404.434L416.842 398.887L422.981 392.222Z" fill="black"/>
<path d="M439.439 407.324L446.282 408.741L451.343 404.257V391.629L451.455 389.903V389.853L451.48 389.488L452.401 375.469C452.401 375.469 459.244 352.101 460.307 347.632C461.061 344.448 460.747 334.847 460.499 329.543C460.398 327.367 460.307 325.914 460.307 325.914L445.204 322.255L444.885 333.896L443.782 374.588C443.707 377.181 443.183 379.741 442.233 382.155L442.182 382.291C440.867 385.7 440.127 389.304 439.991 392.955L439.485 405.887V406.246L439.439 407.324Z" fill="#CC818C"/>
<path opacity="0.1" d="M451.475 389.493V389.852L451.5 389.488L451.475 389.493ZM439.439 407.324L446.282 408.741L451.343 404.257V403.184C451.328 403.422 451.253 403.653 451.126 403.856C450.999 404.058 450.823 404.225 450.615 404.343L450.544 404.383C448.187 405.631 445.515 406.159 442.861 405.902L440.188 405.674C439.947 405.701 439.711 405.758 439.485 405.846V406.205L439.439 407.324Z" fill="black"/>
<path d="M450.56 404.738L450.63 404.697C450.854 404.573 451.04 404.391 451.169 404.17C451.298 403.949 451.365 403.698 451.364 403.442L451.476 389.848C451.476 389.848 452.954 388.8 452.599 393.578C452.245 398.356 452.007 405.497 452.007 405.497C452.007 405.497 451.952 413.286 444.517 413.286C444.517 413.286 437.082 414.698 437.137 410.452C437.193 406.206 440.209 406.028 440.209 406.028L442.877 406.261C445.531 406.514 448.202 405.984 450.56 404.738V404.738Z" fill="#B07473"/>
<path d="M403.802 404.435C403.98 407.502 413.004 405.731 413.004 405.731L419.077 393.933C419.077 393.933 424.139 390.036 421.608 386.614C421.47 386.429 421.345 386.234 421.233 386.032V386.002C421.178 385.911 421.132 385.82 421.082 385.724C419.259 382.11 420.155 376.183 420.155 376.183C420.155 376.183 422.514 358.975 423.344 354.42C423.926 351.206 423.688 340.684 423.491 334.792C423.415 332.348 423.344 330.698 423.344 330.698L408.352 326.689V331.158C408.322 334.853 408.211 340.026 407.846 343.386C407.199 349.111 409.501 368.05 409.501 368.05L410.296 385.288C410.409 388.206 409.721 391.1 408.307 393.655C406.424 397.096 403.975 401.94 403.802 404.086C403.792 404.202 403.792 404.319 403.802 404.435V404.435Z" fill="#CC818C"/>
<path opacity="0.1" d="M403.803 404.435C403.98 407.502 413.004 405.731 413.004 405.731L419.078 393.933C419.078 393.933 424.139 390.036 421.608 386.615C421.471 386.429 421.346 386.235 421.234 386.032C421.153 387.819 419.209 392.278 419.209 392.278C419.209 392.278 414.194 402.314 412.63 404.612C411.066 406.91 404.101 404.187 403.843 404.106C403.821 404.215 403.807 404.325 403.803 404.435V404.435Z" fill="black"/>
<path d="M421.072 385.713C421.072 385.713 424.038 385.024 423.157 392.753C423.189 393.631 422.988 394.503 422.575 395.279C422.162 396.055 421.55 396.708 420.803 397.171C418.683 398.507 415.403 401.377 413.748 406.96C413.749 408.165 413.343 409.336 412.595 410.281C411.847 411.227 410.802 411.891 409.628 412.168C406.951 412.79 403.61 413.342 401.677 412.8C398.078 411.788 399.652 409.323 399.652 409.323L403.782 404.424C403.782 404.424 410.979 407.258 412.574 404.955C414.168 402.653 419.153 392.621 419.153 392.621C419.153 392.621 421.973 386.36 421.072 385.713V385.713Z" fill="#B07473"/>
<path opacity="0.1" d="M445.225 323.658L444.906 335.299C448.955 334.909 451.81 334.362 452.306 333.598C453.364 331.953 457.231 331.255 460.52 330.971C460.419 328.795 460.328 327.342 460.328 327.342L445.225 323.658ZM408.339 332.555C408.727 331.77 409.294 331.088 409.994 330.561C411.588 329.676 411.416 336.225 411.416 336.225C411.416 336.225 416.705 336.275 423.482 336.189C423.406 333.74 423.335 332.095 423.335 332.095L408.344 328.086C408.344 328.086 408.364 329.954 408.339 332.555Z" fill="black"/>
<path d="M406.633 334.114C406.633 334.114 408.405 329.321 409.994 328.44C411.583 327.56 411.416 334.104 411.416 334.104C411.416 334.104 450.357 334.458 452.306 331.447C454.255 328.435 465.582 328.618 465.582 328.618C465.582 328.618 465.227 291.088 464.342 276.927C463.456 262.765 462.039 249.844 458.501 245.952C456.208 243.421 452.934 235.278 450.939 229.842C449.841 226.871 449.117 224.71 449.117 224.71L411.947 226.836L411.644 229.842L407.696 269.32C407.696 269.32 407.19 312.847 405.57 322.777C403.951 332.707 406.633 334.114 406.633 334.114V334.114Z" fill="#444053"/>
<g opacity="0.1">
<path d="M449.304 331.472C451.248 328.465 462.58 328.642 462.58 328.642C462.58 328.642 462.226 291.113 461.34 276.952C460.454 262.79 459.037 249.869 455.499 245.977C453.207 243.446 449.932 235.303 447.938 229.867C447.017 227.372 446.359 225.448 446.172 224.897L449.056 224.735C449.056 224.735 449.78 226.896 450.879 229.867C452.903 235.303 456.147 243.456 458.44 245.977C461.983 249.869 463.395 262.79 464.281 276.952C465.167 291.113 465.501 328.617 465.501 328.617C465.501 328.617 454.173 328.435 452.23 331.472C450.565 334.043 421.908 334.159 413.587 334.139C424.256 334.088 447.786 333.769 449.304 331.472ZM406.977 328.435C407.696 328.035 408.055 329.143 408.232 330.459C407.59 331.627 407.03 332.838 406.557 334.083C406.557 334.083 405.545 333.531 405.14 330.733C405.702 329.736 406.355 328.784 406.977 328.435V328.435Z" fill="black"/>
</g>
<path d="M418.117 133.91C415.546 137.423 418.147 142.408 415.389 145.819C414.478 146.948 413.076 147.753 412.124 148.856C410.363 150.911 410.434 153.695 411.299 156.109C412.165 158.523 413.729 160.715 414.802 163.063C415.268 164.075 415.642 165.224 415.161 166.236C414.827 166.94 414.149 167.471 413.582 168.084C411.811 170.063 411.76 172.816 412.712 175.144C413.663 177.472 415.49 179.492 417.267 181.455C417.975 182.235 418.871 183.09 420.05 183.07C420.672 183.02 421.272 182.822 421.802 182.493C426 180.283 429.185 176.54 430.694 172.042C431.97 167.81 431.701 163.263 429.935 159.211C428.417 155.633 425.947 152.202 425.927 148.416C425.927 145.414 427.47 142.55 427.744 139.559C428.078 135.93 425.927 130.16 421.543 128.576C421.832 130.919 419.443 132.129 418.117 133.91V133.91Z" fill="#585268"/>
<path opacity="0.1" d="M418.117 133.91C415.546 137.423 418.147 142.408 415.389 145.819C414.478 146.948 413.076 147.753 412.124 148.856C410.363 150.911 410.434 153.695 411.299 156.109C412.165 158.523 413.729 160.715 414.802 163.063C415.268 164.075 415.642 165.224 415.161 166.236C414.827 166.94 414.149 167.471 413.582 168.084C411.811 170.063 411.76 172.816 412.712 175.144C413.663 177.472 415.49 179.492 417.267 181.456C417.975 182.235 418.871 183.09 420.05 183.07C420.672 183.02 421.272 182.822 421.802 182.493C426 180.283 429.185 176.54 430.694 172.042C431.97 167.81 431.701 163.263 429.935 159.211C428.417 155.633 425.947 152.202 425.927 148.416C425.927 145.414 427.47 142.55 427.744 139.559C428.078 135.93 425.927 130.16 421.543 128.576C421.832 130.919 419.443 132.129 418.117 133.91V133.91ZM446.657 261.514C441.505 261.788 436.656 263.999 432.147 266.505C427.637 269.01 423.274 271.87 418.421 273.631L446.657 261.514ZM443.454 273.651C438.356 274.14 433.606 276.449 430.072 280.155C428.822 281.481 427.744 282.969 426.438 284.239C424.436 286.184 421.965 287.579 419.266 288.288L443.454 273.651ZM444.511 282.883C440.402 284.023 436.683 286.265 433.756 289.366C432.967 290.217 432.238 291.133 431.458 291.978C427.192 296.533 421.169 298.988 415.354 301.286" fill="black"/>
<path d="M444.07 154.789C444.186 158.905 444.54 163.012 445.133 167.088C445.609 169.993 446.287 172.579 447.259 173.728C450.088 177.094 433.452 181.608 433.452 181.608L423.628 174.016C423.628 174.016 431.417 166.845 427.788 159.845C424.159 152.845 444.07 154.789 444.07 154.789V154.789Z" fill="#CC818C"/>
<path opacity="0.1" d="M411.643 229.842H450.938C449.84 226.871 449.116 224.71 449.116 224.71L411.946 226.836L411.643 229.842Z" fill="black"/>
<path d="M409.113 229.132H451.122C449.942 224.911 451.122 220.999 452.807 217.997C453.985 215.889 455.467 213.965 457.205 212.288L457.494 212.03L472.171 208.776L472.961 208.604C472.961 208.604 473.077 181.936 463.638 178.277C454.199 174.617 448.53 169.673 448.53 169.673L435.553 173.681L425.992 168.848C422.925 172.153 414.782 170.872 414.782 170.872C401.445 172.391 401.445 182.437 401.445 182.437C401.445 182.437 409.235 200.612 409.827 200.612C410.419 200.612 409.113 229.132 409.113 229.132V229.132Z" fill="#67647E"/>
<path opacity="0.1" d="M423.617 212.178C423.617 212.178 415.048 210.28 412.133 206.96L423.617 212.178ZM466.815 202.227L456.895 210.371C456.967 211.014 457.077 211.653 457.224 212.284L457.512 212.026L472.19 208.771L466.815 202.227ZM439.909 226.304C439.909 226.304 442.086 227.528 445.416 229.133H451.125C449.946 224.912 451.125 220.999 452.81 217.998L442.723 214.734C446.165 217.922 439.909 226.304 439.909 226.304V226.304Z" fill="black"/>
<path d="M407.34 179.218L401.438 182.402L395.653 197.034C395.653 197.034 389.635 213.083 390.222 217.335C390.222 217.335 388.102 227.361 391.877 229.132L401.727 233.586C401.9 233.665 402.094 233.687 402.281 233.65C402.468 233.613 402.638 233.518 402.768 233.379C402.899 233.24 402.982 233.064 403.007 232.875C403.031 232.686 402.996 232.494 402.906 232.326C401.504 229.669 399.965 225.519 402.4 223.216L399.566 217.319L409.825 200.577L413.241 194.817L407.34 179.218Z" fill="#67647E"/>
<path opacity="0.1" d="M420.454 208.828C420.96 210.913 422.691 214.117 428.4 215.326L434.686 220.458L441.352 223.495L444.065 224.725L445.219 216.404L442.602 214.972L439.565 213.307C439.565 213.307 432.687 200.836 421.79 206.105C421.29 206.337 420.884 206.735 420.641 207.23C420.398 207.725 420.332 208.289 420.454 208.828V208.828Z" fill="black"/>
<path d="M420.814 208.118C421.32 210.204 423.051 213.407 428.76 214.617L435.046 219.754L441.712 222.791L444.425 224.021L445.579 215.7L442.962 214.273L439.925 212.603C439.925 212.603 433.047 200.137 422.15 205.401C421.651 205.633 421.246 206.029 421.003 206.524C420.76 207.018 420.693 207.581 420.814 208.118V208.118Z" fill="#CC818C"/>
<path opacity="0.1" d="M433.092 165.589C441.5 165.589 448.316 158.773 448.316 150.365C448.316 141.957 441.5 135.141 433.092 135.141C424.684 135.141 417.868 141.957 417.868 150.365C417.868 158.773 424.684 165.589 433.092 165.589Z" fill="black"/>
<path d="M433.092 165.235C441.5 165.235 448.316 158.418 448.316 150.01C448.316 141.602 441.5 134.786 433.092 134.786C424.684 134.786 417.868 141.602 417.868 150.01C417.868 158.418 424.684 165.235 433.092 165.235Z" fill="#CC818C"/>
<path opacity="0.1" d="M442.52 182.533L437.965 173.636C437.965 173.636 444.666 170.933 445.152 167.795C445.638 164.657 451.57 171.469 450.284 173.727C448.999 175.984 442.52 182.533 442.52 182.533Z" fill="black"/>
<path d="M442.52 181.825L437.965 172.927C437.965 172.927 444.666 170.225 445.152 167.087C445.638 163.949 451.57 170.766 450.284 173.019C448.999 175.271 442.52 181.825 442.52 181.825Z" fill="#67647E"/>
<path d="M405.063 204.804L430.37 238.811C430.37 238.811 421.047 243.872 408.181 234.797L402.614 228.192L386.797 201.519L405.063 204.804Z" fill="#F6F8FB"/>
<path d="M400.082 223.292L402.385 223.232C402.385 223.232 416.456 209.566 419.908 216.48C423.359 223.394 411.146 229.842 411.146 229.842L407.431 231.866L402.562 233.283L399.465 229.123L400.082 223.292Z" fill="#CC818C"/>
<path opacity="0.1" d="M403.479 230.672C403.692 231.457 403.894 232.322 403.54 233.051C403.458 233.248 403.309 233.409 403.12 233.506C402.96 233.573 402.785 233.597 402.613 233.577C401.395 233.473 400.261 232.911 399.44 232.003C398.63 231.102 397.938 230.102 397.38 229.027C396.753 227.939 396.1 226.724 396.327 225.484C396.575 224.128 397.785 223.186 398.939 222.448C401.272 220.904 401.328 222.701 401.859 224.685L403.479 230.672Z" fill="black"/>
<path d="M403.124 230.672C403.337 231.457 403.539 232.322 403.185 233.051C403.103 233.248 402.955 233.409 402.765 233.506C402.605 233.573 402.431 233.597 402.259 233.577C401.04 233.473 399.906 232.911 399.085 232.003C398.276 231.102 397.583 230.102 397.026 229.027C396.398 227.939 395.745 226.724 395.973 225.484C396.221 224.128 397.43 223.186 398.584 222.448C400.918 220.904 400.973 222.701 401.505 224.685L403.124 230.672Z" fill="#67647E"/>
<path opacity="0.1" d="M409.822 200.577L411.001 198.588L409.968 202.283L409.822 200.577V200.577ZM441.713 222.771L444.426 224.001L445.58 215.68L442.963 214.253C444.749 216.308 443.186 220.124 441.713 222.771ZM452.6 213.114C452.6 213.114 443.838 213.645 440.123 211.256Z" fill="black"/>
<g opacity="0.1">
<path d="M451.511 218.702C452.692 216.594 454.175 214.67 455.914 212.993C456.332 212.731 456.764 212.494 457.21 212.284L470.876 209.48L471.665 209.308C471.665 209.308 471.787 182.641 462.342 178.981C457.05 176.963 452.088 174.167 447.619 170.686L448.657 170.367C448.657 170.367 454.32 175.322 463.759 178.971C473.199 182.62 473.092 209.308 473.092 209.308H471.675L457.686 211.986L456.896 212.74C455.142 214.494 453.638 216.481 452.427 218.646C450.581 222.079 450.161 226.101 451.258 229.842H449.811C448.646 225.621 449.846 221.708 451.511 218.702ZM414.215 171.638C414.442 171.607 414.66 171.572 414.893 171.546C415.851 171.682 416.816 171.761 417.783 171.784C416.592 171.817 415.399 171.768 414.215 171.638V171.638ZM434.247 174.376L425.603 170.018C425.782 169.877 425.951 169.723 426.109 169.557L435.128 174.112L434.247 174.376Z" fill="black"/>
</g>
<path d="M467.171 201.519L472.956 208.605L474.135 227.838C474.135 227.838 475.653 237.631 464.458 235.273C453.262 232.914 440.265 225.595 440.265 225.595C440.265 225.595 446.521 217.214 443.099 214.031L459.149 219.223C459.149 219.223 461.861 218.631 459.736 216.273C457.61 213.914 457.235 209.663 457.235 209.663L467.171 201.519Z" fill="#67647E"/>
<path opacity="0.1" d="M469.765 221.82L472.954 225.474C472.134 225.223 471.401 224.748 470.837 224.102C470.274 223.456 469.902 222.666 469.765 221.82V221.82ZM464.339 221.227L469.294 227.599L466.819 228.192L464.339 221.227ZM414.916 143.021C414.369 141.69 414.784 140.151 415.422 138.87C416.06 137.59 416.976 136.426 417.447 135.069C418.181 133.045 417.953 130.778 418.752 128.783C420.154 125.291 424.138 123.722 427.711 122.543C428.764 122.194 429.887 121.839 430.97 122.097C432.398 122.442 433.354 123.753 434.513 124.628C439.362 128.242 447.242 124.264 451.929 128.09C453.726 129.553 454.596 131.901 454.865 134.199C455.133 136.497 454.865 138.83 454.839 141.148C454.763 145.197 455.517 149.641 458.559 152.328C459.475 153.138 460.553 153.751 461.444 154.586C462.335 155.421 463.039 156.61 462.882 157.81C462.756 158.367 462.586 158.914 462.375 159.445C461.768 161.56 462.669 163.802 463.767 165.71C467.047 171.379 472.822 176.051 479.376 176.182C478.936 179.487 475.504 181.405 472.458 182.762C468.576 184.488 464.496 186.183 460.255 185.966C456.013 185.748 451.59 183.035 450.836 178.88C450.578 177.447 450.613 175.691 449.368 174.937C448.619 174.482 447.647 174.598 446.837 174.254C445.668 173.748 445.086 172.462 444.702 171.247C443.911 168.751 443.487 166.152 443.441 163.534C443.391 160.431 443.806 157.045 442.044 154.49C440.415 152.126 437.52 150.947 435.642 148.75C433.911 146.726 432.023 144.306 429.184 143.922C425.368 143.37 417.239 148.71 414.916 143.021V143.021Z" fill="black"/>
<path d="M414.916 142.312C414.369 140.981 414.784 139.443 415.422 138.162C416.06 136.882 416.976 135.717 417.447 134.361C418.181 132.337 417.953 130.069 418.752 128.075C420.154 124.583 424.138 123.014 427.711 121.834C428.764 121.485 429.887 121.131 430.97 121.389C432.398 121.733 433.354 123.044 434.513 123.92C439.362 127.539 447.242 123.555 451.929 127.382C453.726 128.849 454.596 131.193 454.865 133.491C455.133 135.788 454.865 138.122 454.839 140.44C454.763 144.489 455.517 148.932 458.559 151.62C459.475 152.43 460.553 153.042 461.444 153.877C462.335 154.712 463.039 155.902 462.882 157.101C462.755 157.66 462.586 158.208 462.375 158.741C461.768 160.852 462.669 163.099 463.767 165.002C467.047 170.67 472.822 175.342 479.376 175.474C478.936 178.778 475.504 180.697 472.458 182.053C468.576 183.784 464.496 185.475 460.255 185.257C456.013 185.039 451.59 182.326 450.836 178.146C450.578 176.714 450.613 174.957 449.368 174.203C448.619 173.748 447.647 173.864 446.837 173.52C445.668 173.014 445.086 171.728 444.702 170.513C443.911 168.017 443.487 165.419 443.441 162.8C443.391 159.698 443.806 156.312 442.044 153.756C440.415 151.392 437.52 150.213 435.642 148.016C433.911 145.992 432.023 143.573 429.184 143.188C425.368 142.687 417.239 148.001 414.916 142.312V142.312Z" fill="#585268"/>
<path opacity="0.1" d="M425.708 181.43L434.433 174.345C434.433 174.345 428.461 171.106 427.748 168.342C427.034 165.579 422.256 169.653 422.742 172.133C423.228 174.613 425.708 181.43 425.708 181.43Z" fill="black"/>
<path d="M426.062 180.367L434.788 173.282C434.788 173.282 428.816 170.043 428.102 167.279C427.388 164.516 422.611 168.59 423.096 171.07C423.582 173.55 426.062 180.367 426.062 180.367Z" fill="#67647E"/>
<path opacity="0.1" d="M435.127 179.908C435.51 179.908 435.82 179.597 435.82 179.214C435.82 178.831 435.51 178.521 435.127 178.521C434.744 178.521 434.433 178.831 434.433 179.214C434.433 179.597 434.744 179.908 435.127 179.908Z" fill="black"/>
<path opacity="0.1" d="M435.127 183.764C435.51 183.764 435.82 183.454 435.82 183.071C435.82 182.688 435.51 182.378 435.127 182.378C434.744 182.378 434.433 182.688 434.433 183.071C434.433 183.454 434.744 183.764 435.127 183.764Z" fill="black"/>
<path opacity="0.1" d="M435.127 187.615C435.51 187.615 435.82 187.305 435.82 186.922C435.82 186.539 435.51 186.229 435.127 186.229C434.744 186.229 434.433 186.539 434.433 186.922C434.433 187.305 434.744 187.615 435.127 187.615Z" fill="black"/>
<g opacity="0.1">
<path d="M418.429 132.478C419.117 130.58 418.97 128.454 419.613 126.546C419.318 126.97 419.072 127.425 418.879 127.903C418.079 129.897 418.302 132.174 417.573 134.194C417.573 134.229 417.538 134.27 417.523 134.31C417.88 133.728 418.183 133.115 418.429 132.478V132.478ZM473.49 180.17C469.608 181.901 465.529 183.592 461.282 183.374C457.036 183.156 452.623 180.444 451.868 176.263C451.61 174.831 451.646 173.074 450.401 172.32C449.652 171.865 448.68 171.981 447.87 171.637C446.696 171.131 446.119 169.845 445.734 168.631C444.943 166.131 444.518 163.529 444.474 160.907C444.423 157.805 444.833 154.419 443.077 151.863C441.447 149.499 438.552 148.32 436.675 146.123C434.939 144.099 433.056 141.679 430.211 141.295C426.314 140.789 418.181 146.103 415.863 140.414C415.491 139.339 415.544 138.162 416.009 137.124C415.842 137.408 415.68 137.691 415.534 137.98C414.876 139.26 414.461 140.799 415.028 142.13C417.351 147.819 425.479 142.479 429.381 143.011C432.221 143.395 434.109 145.83 435.845 147.839C437.722 150.015 440.612 151.215 442.242 153.584C444.003 156.114 443.593 159.525 443.644 162.623C443.686 165.243 444.108 167.843 444.899 170.341C445.284 171.551 445.866 172.872 447.035 173.348C447.845 173.687 448.817 173.575 449.566 174.031C450.806 174.78 450.775 176.562 451.028 177.969C451.782 182.149 456.206 184.867 460.447 185.085C464.689 185.302 468.773 183.607 472.65 181.876C475.444 180.636 478.556 178.91 479.392 176.086C478.035 177.943 475.667 179.204 473.49 180.17Z" fill="black"/>
</g>
</g>
<defs>
<linearGradient id="paint0_linear_535_1475" x1="178.374" y1="160.517" x2="178.374" y2="68.6863" gradientUnits="userSpaceOnUse">
<stop stop-color="#808080" stop-opacity="0.25"/>
<stop offset="0.54" stop-color="#808080" stop-opacity="0.12"/>
<stop offset="1" stop-color="#808080" stop-opacity="0.1"/>
</linearGradient>
<linearGradient id="paint1_linear_535_1475" x1="288.406" y1="279.123" x2="288.406" y2="192.743" gradientUnits="userSpaceOnUse">
<stop stop-color="#808080" stop-opacity="0.25"/>
<stop offset="0.54" stop-color="#808080" stop-opacity="0.12"/>
<stop offset="1" stop-color="#808080" stop-opacity="0.1"/>
</linearGradient>
<linearGradient id="paint2_linear_535_1475" x1="42.133" y1="145.83" x2="42.133" y2="145.735" gradientUnits="userSpaceOnUse">
<stop stop-color="#808080" stop-opacity="0.25"/>
<stop offset="0.54" stop-color="#808080" stop-opacity="0.12"/>
<stop offset="1" stop-color="#808080" stop-opacity="0.1"/>
</linearGradient>
<linearGradient id="paint3_linear_535_1475" x1="70.726" y1="416.374" x2="70.726" y2="110.933" gradientUnits="userSpaceOnUse">
<stop stop-color="#808080" stop-opacity="0.25"/>
<stop offset="0.54" stop-color="#808080" stop-opacity="0.12"/>
<stop offset="1" stop-color="#808080" stop-opacity="0.1"/>
</linearGradient>
<linearGradient id="paint4_linear_535_1475" x1="433.132" y1="414.444" x2="433.132" y2="120.124" gradientUnits="userSpaceOnUse">
<stop stop-color="#808080" stop-opacity="0.25"/>
<stop offset="0.54" stop-color="#808080" stop-opacity="0.12"/>
<stop offset="1" stop-color="#808080" stop-opacity="0.1"/>
</linearGradient>
<clipPath id="clip0_535_1475">
<rect width="518" height="424.052" fill="white"/>
</clipPath>
</defs>
</svg>
